<svg xmlns="http://www.w3.org/2000/svg" version="1.0" viewBox="352.091796875 1165.06982421875 265.908203125 345.7991943359375" width="1.3849385579427083in" height="1.8010374704996743in"><style id="svg-style">.outline { stroke: black; fill: none; stroke-width: 1px; }
.outline { stroke: black; fill: none; stroke-width: 1px; }
</style><path id="path-3116" class="outline" d="M471.35849896851903 1509.909334705274 C475.6253934385152 1511.1457201270036 479.567869943683 1511.18623860844 483.88398044061074 1510.0380643217582 C485.87279119827485 1509.508999698725 492.03941997781243 1508.1929610393054 497.5875999506943 1507.1135339674925 C503.1357799235762 1506.0341068956793 510.5607799235762 1503.7823544884595 514.0875999506943 1502.1096397292263 C521.6737890626928 1498.5116306455752 528 1493.53184701126 528 1491.1582593901653 C528 1490.2253863366054 529.3369800641641 1486.2800182053084 530.9710668092534 1482.3907746539496 C533.2681073365943 1476.9236535938119 534.1964254102149 1472.6175452722566 535.063036352545 1463.4097113711941 C535.6795328562661 1456.8593701170373 535.890304465271 1448.4625 535.5314177058893 1444.75 L534.8788963251955 1438 L546.450213379275 1438 C552.8144377590188 1438 562.4041860858498 1437.3026178258344 567.7607652166773 1436.4502618351878 C584.5622527468659 1433.7767554427003 603.3542803603136 1429.7225023420763 609.5 1427.4453036944888 C610.6 1427.0377161930721 612.9625 1425.6228814444255 614.75 1424.301226475274 C617.828744295217 1422.0248417499479 618 1421.5604404041828 618 1415.4880638676466 C618 1410.2251218238207 617.6168621109492 1408.7209630534207 615.8591805902099 1407.0834336206726 C614.6817299148254 1405.9864714498804 608.5078531020232 1402.0314416335411 602.1394543395385 1398.2944784732524 C588.0000216934815 1389.9974887782973 589.6876806808187 1390.9661683953896 574.7889834822715 1382.5959020214354 C560.7851780131837 1374.7283965299669 553.4594790895039 1371 552.0049029064108 1371 C551.4522063078849 1371 551 1370.325 551 1369.5 C551 1368.675 551.2698434881775 1368 551.5996521959501 1368 C551.9294609037225 1368 556.4274425205743 1366.875 561.5951669000654 1365.5 C566.7628912795562 1364.125 571.8701467154804 1363 572.9446234243411 1363 C574.0191001332018 1363 576.04611851635 1361.4950241050597 577.4491087202258 1359.6556091223547 C579.1982861156148 1357.3623193334458 579.9909218267549 1355.0837331357984 579.9711150905348 1352.4056091223547 C579.949265157007 1349.4512187057053 579.1199134513638 1347.5257922122714 576.5658797143045 1344.5 C574.7088869575837 1342.3 570.8795111524049 1337.592103007867 568.0561557027961 1334.0380066841492 C565.2328002531873 1330.4839103604313 558.5502191268498 1323.0589103604314 553.2059754220461 1317.5380066841492 C537.1453629413438 1300.9464926391684 529.6183525309251 1292.0791155727168 531.1378564922364 1291.540124254353 C534.9104713977728 1290.2019199894169 548.083013764038 1287.0268567085966 552.3639921873914 1286.4238511640501 C558.6049707779747 1285.5447659827307 563.5019865197213 1281.4563232307064 564.3150317156294 1276.4461129832553 C564.9983317290915 1272.235428575105 563.4622862938882 1268.281499311062 560.8170338828406 1267.441928810284 C559.7833351544955 1267.1138455788366 558.0092089666668 1264.870385975798 556.8745312432213 1262.4564630257537 C555.7398535197757 1260.0425400757092 551.5741464465373 1254.3398219608055 547.6174044138024 1249.7837561037454 C540.7698342601915 1241.8989912334093 526.3567696975974 1223.7787168462903 510 1202.4907125772238 C505.875 1197.1221086760024 499.2375 1188.78661755939 495.25 1183.9673989847518 C489.77302630654094 1177.3480301179623 488 1174.4641778518637 488 1172.1751718462806 C488 1170.092870642366 487.1758833924339 1168.4969100800738 485.36514130819563 1167.0725801490305 C482.37873437404187 1164.7234721122668 479.29715318755603 1164.451855037691 475.4612118268881 1166.1996268858434 C474.013120008438 1166.8594216730573 468.5919461489314 1172.9063042797397 463.4141588057622 1179.6371437895818 C458.23637146259296 1186.3679832994242 454 1192.2013710886802 454 1192.6002277657062 C454 1193.7637964287635 438.19031849505444 1216.8909958431775 432.5352134749777 1224 C429.6913551791048 1227.575 424.5187023514437 1235.145290285357 421.04042941350866 1240.8228673007939 C417.07202514376536 1247.3004845757712 411.0092658364242 1255.1229478690786 404.76448912714227 1261.8228673007939 C399.2909949075758 1267.6952902853573 393.68987491277346 1274.1575112736227 392.31755580535923 1276.1833583858283 C390.6187349879377 1278.6911943756752 389.6478995745929 1281.7914708784986 389.27555952079 1285.897702828861 C388.74619636757535 1291.7356132842995 388.83809055308615 1292.038090553087 392.14600273828916 1295.3460027382891 L395.56331659051364 1298.7633165905129 L416.0316582952568 1298.3872464373126 C427.2892462328656 1298.1804078530524 437.12627340861195 1298.4121334017564 437.8917186858043 1298.902192101099 C439.033150816413 1299.6329677188753 438.859923936888 1300.3962823409981 436.92849041758893 1303.146603959043 C435.63326959287815 1304.9909717815694 431.2664089752942 1309.6081817944905 427.2243557118469 1313.407070654423 C423.1823024483996 1317.2059595143558 417.7900841132282 1323.055959514356 415.24164830035494 1326.407070654423 C412.6932124874817 1329.7581817944904 407.78746484781647 1335.6828110772713 404.3399868788767 1339.5729135050474 C396.02367129857805 1348.9569675064195 384 1366.7924270716294 384 1369.7444812838512 C384 1373.146127634888 386.7647428301703 1377.9833639380035 388.7756801462316 1378.1000842438548 C389.72405606580423 1378.155130577975 394.2141472941137 1378.1168910260212 398.75366065358594 1378.0151074617356 C408.1204933167404 1377.8050872373135 422.03380975978524 1378.9169839311141 421.93274948110945 1379.8674876859716 C421.8957616957196 1380.2153694586873 418.46310523306386 1383.425 414.30462400854105 1387 C401.2986263500009 1398.181111352647 385.9625202706756 1411.9171677895388 373.5 1423.5473879333085 C366.9 1429.7066118528471 360.02133732574026 1435.9817342130461 358.2140829460895 1437.492104289306 C356.4068285664387 1439.0024743655658 354.26932856643873 1441.5122826009351 353.4640829460895 1443.0694559234596 C351.6296096598387 1446.616936083606 351.634918852309 1450.9339832292314 353.47674564110474 1453.365833701675 C354.9555821248611 1455.3184110143554 356.0781421808185 1455.3030543277246 366 1453.1945148561792 C368.475 1452.668541264622 384.225 1451.9460453605839 401 1451.588968402761 C429.2787198498132 1450.9870203100584 432.28369338635326 1450.7485048754324 442.2607535599524 1448.3139556784643 C448.17916801792626 1446.8697756379236 453.2438327989552 1445.9104994656223 453.5155641844613 1446.1822308511282 C453.7872955699674 1446.453962236634 453.58013778701985 1448.9409453789422 453.0552135556891 1451.708860056258 C452.53028932435825 1454.4767747335736 451.78462106437405 1463.129398024546 451.3981729779464 1470.9369118139743 C450.703234811467 1484.976932991836 450.72569542912555 1485.2001119019149 453.44913426146024 1491.3161957155585 C454.9636110538205 1494.7172880720013 456.7196145327757 1498.5841766725032 457.351364214694 1499.9092814944518 C458.7136071344224 1502.7666072886113 466.914961514158 1508.6217647950934 471.35849896851903 1509.909334705274 Z"/></svg>